<mxfile host="app.diagrams.net" modified="2024-03-13T12:07:09.152Z" agent="Mozilla/5.0 (Windows NT 10.0; Win64; x64) AppleWebKit/537.36 (KHTML, like Gecko) Chrome/122.0.0.0 Safari/537.36" etag="63PFv-Y_AIjRNzIlXnmz" version="24.0.2" type="github">
  <diagram name="Page-1" id="Rdyy5AU9boO1fGuf9hoA">
    <mxGraphModel dx="1434" dy="1907" grid="1" gridSize="10" guides="1" tooltips="1" connect="1" arrows="1" fold="1" page="1" pageScale="1" pageWidth="827" pageHeight="1169" math="0" shadow="0">
      <root>
        <mxCell id="0" />
        <mxCell id="1" parent="0" />
        <mxCell id="h0l9JVYS9Mgj9HRo5y_n-1" value="" style="rounded=0;whiteSpace=wrap;html=1;dashed=1;fillColor=none;strokeColor=#FFFFFF;" parent="1" vertex="1">
          <mxGeometry y="-40" width="880" height="840" as="geometry" />
        </mxCell>
        <mxCell id="h0l9JVYS9Mgj9HRo5y_n-65" style="edgeStyle=orthogonalEdgeStyle;rounded=0;orthogonalLoop=1;jettySize=auto;html=1;exitX=1;exitY=0.5;exitDx=0;exitDy=0;exitPerimeter=0;strokeColor=#ff0000;enumerate=1;enumerateValue=3F;" parent="1" source="h0l9JVYS9Mgj9HRo5y_n-11" target="h0l9JVYS9Mgj9HRo5y_n-12" edge="1">
          <mxGeometry relative="1" as="geometry" />
        </mxCell>
        <mxCell id="h0l9JVYS9Mgj9HRo5y_n-11" value="" style="sketch=0;points=[[0,0,0],[0.25,0,0],[0.5,0,0],[0.75,0,0],[1,0,0],[0,1,0],[0.25,1,0],[0.5,1,0],[0.75,1,0],[1,1,0],[0,0.25,0],[0,0.5,0],[0,0.75,0],[1,0.25,0],[1,0.5,0],[1,0.75,0]];outlineConnect=0;fontColor=#232F3E;fillColor=#E7157B;strokeColor=#ffffff;dashed=0;verticalLabelPosition=bottom;verticalAlign=top;align=center;html=1;fontSize=12;fontStyle=0;aspect=fixed;shape=mxgraph.aws4.resourceIcon;resIcon=mxgraph.aws4.sns;" parent="1" vertex="1">
          <mxGeometry x="562" y="480" width="78" height="78" as="geometry" />
        </mxCell>
        <mxCell id="h0l9JVYS9Mgj9HRo5y_n-12" value="" style="sketch=0;outlineConnect=0;fontColor=#232F3E;gradientColor=none;fillColor=#232F3D;strokeColor=none;dashed=0;verticalLabelPosition=bottom;verticalAlign=top;align=center;html=1;fontSize=12;fontStyle=0;aspect=fixed;pointerEvents=1;shape=mxgraph.aws4.user;" parent="1" vertex="1">
          <mxGeometry x="760" y="480" width="78" height="78" as="geometry" />
        </mxCell>
        <mxCell id="h0l9JVYS9Mgj9HRo5y_n-15" value="AWS Cloud" style="points=[[0,0],[0.25,0],[0.5,0],[0.75,0],[1,0],[1,0.25],[1,0.5],[1,0.75],[1,1],[0.75,1],[0.5,1],[0.25,1],[0,1],[0,0.75],[0,0.5],[0,0.25]];outlineConnect=0;gradientColor=none;html=1;whiteSpace=wrap;fontSize=12;fontStyle=0;container=1;pointerEvents=0;collapsible=0;recursiveResize=0;shape=mxgraph.aws4.group;grIcon=mxgraph.aws4.group_aws_cloud_alt;strokeColor=#232F3E;fillColor=none;verticalAlign=top;align=left;spacingLeft=30;fontColor=#232F3E;dashed=0;" parent="1" vertex="1">
          <mxGeometry x="40" y="40" width="682" height="720" as="geometry" />
        </mxCell>
        <mxCell id="h0l9JVYS9Mgj9HRo5y_n-18" value="S3 Bucket" style="text;html=1;strokeColor=none;fillColor=none;align=center;verticalAlign=middle;whiteSpace=wrap;rounded=0;" parent="h0l9JVYS9Mgj9HRo5y_n-15" vertex="1">
          <mxGeometry x="522" y="158" width="78" height="40" as="geometry" />
        </mxCell>
        <mxCell id="h0l9JVYS9Mgj9HRo5y_n-21" value="EventBridge&lt;br&gt;Schedule" style="text;html=1;strokeColor=none;fillColor=none;align=center;verticalAlign=middle;whiteSpace=wrap;rounded=0;" parent="h0l9JVYS9Mgj9HRo5y_n-15" vertex="1">
          <mxGeometry x="42" y="158" width="78" height="40" as="geometry" />
        </mxCell>
        <mxCell id="h0l9JVYS9Mgj9HRo5y_n-9" value="" style="sketch=0;points=[[0,0,0],[0.25,0,0],[0.5,0,0],[0.75,0,0],[1,0,0],[0,1,0],[0.25,1,0],[0.5,1,0],[0.75,1,0],[1,1,0],[0,0.25,0],[0,0.5,0],[0,0.75,0],[1,0.25,0],[1,0.5,0],[1,0.75,0]];outlineConnect=0;fontColor=#232F3E;fillColor=#7AA116;strokeColor=#ffffff;dashed=0;verticalLabelPosition=bottom;verticalAlign=top;align=center;html=1;fontSize=12;fontStyle=0;aspect=fixed;shape=mxgraph.aws4.resourceIcon;resIcon=mxgraph.aws4.s3;" parent="h0l9JVYS9Mgj9HRo5y_n-15" vertex="1">
          <mxGeometry x="522" y="81" width="78" height="78" as="geometry" />
        </mxCell>
        <mxCell id="h0l9JVYS9Mgj9HRo5y_n-27" value="AWS Step Functions workflow" style="points=[[0,0],[0.25,0],[0.5,0],[0.75,0],[1,0],[1,0.25],[1,0.5],[1,0.75],[1,1],[0.75,1],[0.5,1],[0.25,1],[0,1],[0,0.75],[0,0.5],[0,0.25]];outlineConnect=0;gradientColor=none;html=1;whiteSpace=wrap;fontSize=12;fontStyle=0;container=1;pointerEvents=0;collapsible=0;recursiveResize=0;shape=mxgraph.aws4.group;grIcon=mxgraph.aws4.group_aws_step_functions_workflow;strokeColor=#CD2264;fillColor=none;verticalAlign=top;align=left;spacingLeft=30;fontColor=#CD2264;dashed=0;" parent="h0l9JVYS9Mgj9HRo5y_n-15" vertex="1">
          <mxGeometry x="161" y="40" width="478" height="520" as="geometry" />
        </mxCell>
        <mxCell id="h0l9JVYS9Mgj9HRo5y_n-29" value="" style="sketch=0;points=[[0,0,0],[0.25,0,0],[0.5,0,0],[0.75,0,0],[1,0,0],[0,1,0],[0.25,1,0],[0.5,1,0],[0.75,1,0],[1,1,0],[0,0.25,0],[0,0.5,0],[0,0.75,0],[1,0.25,0],[1,0.5,0],[1,0.75,0]];outlineConnect=0;fontColor=#232F3E;fillColor=#ED7100;strokeColor=#ffffff;dashed=0;verticalLabelPosition=bottom;verticalAlign=top;align=center;html=1;fontSize=12;fontStyle=0;aspect=fixed;shape=mxgraph.aws4.resourceIcon;resIcon=mxgraph.aws4.lambda;" parent="h0l9JVYS9Mgj9HRo5y_n-27" vertex="1">
          <mxGeometry x="201" y="102" width="78" height="78" as="geometry" />
        </mxCell>
        <mxCell id="h0l9JVYS9Mgj9HRo5y_n-33" value="" style="sketch=0;points=[[0,0,0],[0.25,0,0],[0.5,0,0],[0.75,0,0],[1,0,0],[0,1,0],[0.25,1,0],[0.5,1,0],[0.75,1,0],[1,1,0],[0,0.25,0],[0,0.5,0],[0,0.75,0],[1,0.25,0],[1,0.5,0],[1,0.75,0]];outlineConnect=0;fontColor=#232F3E;fillColor=#7AA116;strokeColor=#ffffff;dashed=0;verticalLabelPosition=bottom;verticalAlign=top;align=center;html=1;fontSize=12;fontStyle=0;aspect=fixed;shape=mxgraph.aws4.resourceIcon;resIcon=mxgraph.aws4.s3;" parent="h0l9JVYS9Mgj9HRo5y_n-27" vertex="1">
          <mxGeometry x="360" y="280" width="78" height="78" as="geometry" />
        </mxCell>
        <mxCell id="h0l9JVYS9Mgj9HRo5y_n-36" value="Lambda Function" style="text;html=1;strokeColor=none;fillColor=none;align=center;verticalAlign=middle;whiteSpace=wrap;rounded=0;" parent="h0l9JVYS9Mgj9HRo5y_n-27" vertex="1">
          <mxGeometry x="200.46" y="180" width="77.08" height="40" as="geometry" />
        </mxCell>
        <mxCell id="h0l9JVYS9Mgj9HRo5y_n-57" style="edgeStyle=orthogonalEdgeStyle;rounded=0;orthogonalLoop=1;jettySize=auto;html=1;exitX=0;exitY=0.5;exitDx=0;exitDy=0;exitPerimeter=0;endArrow=none;endFill=0;enumerate=1;enumerateValue=3;" parent="h0l9JVYS9Mgj9HRo5y_n-27" source="h0l9JVYS9Mgj9HRo5y_n-32" edge="1">
          <mxGeometry relative="1" as="geometry">
            <mxPoint x="160" y="140" as="targetPoint" />
          </mxGeometry>
        </mxCell>
        <mxCell id="h0l9JVYS9Mgj9HRo5y_n-32" value="" style="sketch=0;points=[[0,0,0],[0.25,0,0],[0.5,0,0],[0.75,0,0],[1,0,0],[0,1,0],[0.25,1,0],[0.5,1,0],[0.75,1,0],[1,1,0],[0,0.25,0],[0,0.5,0],[0,0.75,0],[1,0.25,0],[1,0.5,0],[1,0.75,0]];outlineConnect=0;fontColor=#232F3E;fillColor=#ED7100;strokeColor=#ffffff;dashed=0;verticalLabelPosition=bottom;verticalAlign=top;align=center;html=1;fontSize=12;fontStyle=0;aspect=fixed;shape=mxgraph.aws4.resourceIcon;resIcon=mxgraph.aws4.lambda;" parent="h0l9JVYS9Mgj9HRo5y_n-27" vertex="1">
          <mxGeometry x="200.54000000000002" y="340" width="78" height="78" as="geometry" />
        </mxCell>
        <mxCell id="h0l9JVYS9Mgj9HRo5y_n-19" value="SNS Topic" style="text;html=1;strokeColor=none;fillColor=none;align=center;verticalAlign=middle;whiteSpace=wrap;rounded=0;" parent="h0l9JVYS9Mgj9HRo5y_n-27" vertex="1">
          <mxGeometry x="360" y="480" width="78" height="40" as="geometry" />
        </mxCell>
        <mxCell id="h0l9JVYS9Mgj9HRo5y_n-51" value="SNS Topic" style="text;html=1;strokeColor=none;fillColor=none;align=center;verticalAlign=middle;whiteSpace=wrap;rounded=0;" parent="h0l9JVYS9Mgj9HRo5y_n-27" vertex="1">
          <mxGeometry x="360" y="239" width="78" height="40" as="geometry" />
        </mxCell>
        <mxCell id="h0l9JVYS9Mgj9HRo5y_n-52" value="" style="edgeStyle=orthogonalEdgeStyle;rounded=0;orthogonalLoop=1;jettySize=auto;html=1;enumerate=1;enumerateValue=2;" parent="h0l9JVYS9Mgj9HRo5y_n-27" source="h0l9JVYS9Mgj9HRo5y_n-28" target="h0l9JVYS9Mgj9HRo5y_n-29" edge="1">
          <mxGeometry relative="1" as="geometry" />
        </mxCell>
        <mxCell id="h0l9JVYS9Mgj9HRo5y_n-28" value="" style="sketch=0;points=[[0,0,0],[0.25,0,0],[0.5,0,0],[0.75,0,0],[1,0,0],[0,1,0],[0.25,1,0],[0.5,1,0],[0.75,1,0],[1,1,0],[0,0.25,0],[0,0.5,0],[0,0.75,0],[1,0.25,0],[1,0.5,0],[1,0.75,0]];outlineConnect=0;fontColor=#232F3E;fillColor=#E7157B;strokeColor=#ffffff;dashed=0;verticalLabelPosition=bottom;verticalAlign=top;align=center;html=1;fontSize=12;fontStyle=0;aspect=fixed;shape=mxgraph.aws4.resourceIcon;resIcon=mxgraph.aws4.step_functions;" parent="h0l9JVYS9Mgj9HRo5y_n-27" vertex="1">
          <mxGeometry x="40" y="102" width="78" height="78" as="geometry" />
        </mxCell>
        <mxCell id="h0l9JVYS9Mgj9HRo5y_n-55" style="edgeStyle=orthogonalEdgeStyle;rounded=0;orthogonalLoop=1;jettySize=auto;html=1;exitX=1;exitY=0.25;exitDx=0;exitDy=0;exitPerimeter=0;entryX=0;entryY=0.5;entryDx=0;entryDy=0;entryPerimeter=0;fillColor=#d5e8d4;strokeColor=#82b366;enumerate=1;enumerateValue=3S;" parent="h0l9JVYS9Mgj9HRo5y_n-27" source="h0l9JVYS9Mgj9HRo5y_n-32" target="h0l9JVYS9Mgj9HRo5y_n-33" edge="1">
          <mxGeometry relative="1" as="geometry" />
        </mxCell>
        <mxCell id="h0l9JVYS9Mgj9HRo5y_n-60" value="State&lt;br&gt;Machine" style="text;html=1;strokeColor=none;fillColor=none;align=center;verticalAlign=middle;whiteSpace=wrap;rounded=0;" parent="h0l9JVYS9Mgj9HRo5y_n-27" vertex="1">
          <mxGeometry x="40" y="180" width="78" height="40" as="geometry" />
        </mxCell>
        <mxCell id="h0l9JVYS9Mgj9HRo5y_n-24" value="" style="sketch=0;points=[[0,0,0],[0.25,0,0],[0.5,0,0],[0.75,0,0],[1,0,0],[0,1,0],[0.25,1,0],[0.5,1,0],[0.75,1,0],[1,1,0],[0,0.25,0],[0,0.5,0],[0,0.75,0],[1,0.25,0],[1,0.5,0],[1,0.75,0]];outlineConnect=0;fontColor=#232F3E;fillColor=#E7157B;strokeColor=#ffffff;dashed=0;verticalLabelPosition=bottom;verticalAlign=top;align=center;html=1;fontSize=12;fontStyle=0;aspect=fixed;shape=mxgraph.aws4.resourceIcon;resIcon=mxgraph.aws4.eventbridge;" parent="h0l9JVYS9Mgj9HRo5y_n-15" vertex="1">
          <mxGeometry x="42" y="142" width="78" height="78" as="geometry" />
        </mxCell>
        <mxCell id="h0l9JVYS9Mgj9HRo5y_n-38" value="" style="edgeStyle=orthogonalEdgeStyle;rounded=0;orthogonalLoop=1;jettySize=auto;html=1;enumerate=1;enumerateValue=1;" parent="h0l9JVYS9Mgj9HRo5y_n-15" source="h0l9JVYS9Mgj9HRo5y_n-24" target="h0l9JVYS9Mgj9HRo5y_n-28" edge="1">
          <mxGeometry relative="1" as="geometry" />
        </mxCell>
        <mxCell id="h0l9JVYS9Mgj9HRo5y_n-53" style="edgeStyle=orthogonalEdgeStyle;rounded=0;orthogonalLoop=1;jettySize=auto;html=1;exitX=1;exitY=0.25;exitDx=0;exitDy=0;exitPerimeter=0;fillColor=#d5e8d4;strokeColor=#82b366;enumerate=1;enumerateValue=2S;" parent="h0l9JVYS9Mgj9HRo5y_n-15" source="h0l9JVYS9Mgj9HRo5y_n-29" target="h0l9JVYS9Mgj9HRo5y_n-9" edge="1">
          <mxGeometry relative="1" as="geometry" />
        </mxCell>
        <mxCell id="6xOGC-ak0YneYToBrlhZ-1" value="" style="sketch=0;points=[[0,0,0],[0.25,0,0],[0.5,0,0],[0.75,0,0],[1,0,0],[0,1,0],[0.25,1,0],[0.5,1,0],[0.75,1,0],[1,1,0],[0,0.25,0],[0,0.5,0],[0,0.75,0],[1,0.25,0],[1,0.5,0],[1,0.75,0]];outlineConnect=0;fontColor=#232F3E;fillColor=#E7157B;strokeColor=#ffffff;dashed=0;verticalLabelPosition=bottom;verticalAlign=top;align=center;html=1;fontSize=12;fontStyle=0;aspect=fixed;shape=mxgraph.aws4.resourceIcon;resIcon=mxgraph.aws4.sns;" vertex="1" parent="h0l9JVYS9Mgj9HRo5y_n-15">
          <mxGeometry x="522" y="601" width="78" height="78" as="geometry" />
        </mxCell>
        <mxCell id="6xOGC-ak0YneYToBrlhZ-7" style="edgeStyle=orthogonalEdgeStyle;rounded=0;orthogonalLoop=1;jettySize=auto;html=1;exitX=1;exitY=0.75;exitDx=0;exitDy=0;exitPerimeter=0;entryX=0;entryY=0.5;entryDx=0;entryDy=0;entryPerimeter=0;strokeColor=#FF0000;enumerate=1;enumerateValue=F;" edge="1" parent="h0l9JVYS9Mgj9HRo5y_n-15" source="h0l9JVYS9Mgj9HRo5y_n-28" target="6xOGC-ak0YneYToBrlhZ-1">
          <mxGeometry relative="1" as="geometry">
            <Array as="points">
              <mxPoint x="300" y="201" />
              <mxPoint x="300" y="640" />
              <mxPoint x="510" y="640" />
              <mxPoint x="510" y="639" />
            </Array>
          </mxGeometry>
        </mxCell>
        <mxCell id="h0l9JVYS9Mgj9HRo5y_n-22" value="User" style="text;html=1;strokeColor=none;fillColor=none;align=center;verticalAlign=middle;whiteSpace=wrap;rounded=0;" parent="1" vertex="1">
          <mxGeometry x="760" y="558" width="78" height="40" as="geometry" />
        </mxCell>
        <mxCell id="h0l9JVYS9Mgj9HRo5y_n-34" value="S3 Bucket" style="text;html=1;strokeColor=none;fillColor=none;align=center;verticalAlign=middle;whiteSpace=wrap;rounded=0;" parent="1" vertex="1">
          <mxGeometry x="562" y="440" width="78" height="40" as="geometry" />
        </mxCell>
        <mxCell id="h0l9JVYS9Mgj9HRo5y_n-35" value="Lambda Function" style="text;html=1;strokeColor=none;fillColor=none;align=center;verticalAlign=middle;whiteSpace=wrap;rounded=0;" parent="1" vertex="1">
          <mxGeometry x="402" y="499" width="78" height="40" as="geometry" />
        </mxCell>
        <mxCell id="h0l9JVYS9Mgj9HRo5y_n-66" style="edgeStyle=orthogonalEdgeStyle;rounded=0;orthogonalLoop=1;jettySize=auto;html=1;exitX=1;exitY=0.5;exitDx=0;exitDy=0;exitPerimeter=0;strokeColor=#ff0000;endArrow=classic;endFill=1;enumerate=1;enumerateValue=2F;" parent="1" source="h0l9JVYS9Mgj9HRo5y_n-50" target="h0l9JVYS9Mgj9HRo5y_n-67" edge="1">
          <mxGeometry relative="1" as="geometry">
            <mxPoint x="700" y="520" as="targetPoint" />
          </mxGeometry>
        </mxCell>
        <mxCell id="h0l9JVYS9Mgj9HRo5y_n-50" value="" style="sketch=0;points=[[0,0,0],[0.25,0,0],[0.5,0,0],[0.75,0,0],[1,0,0],[0,1,0],[0.25,1,0],[0.5,1,0],[0.75,1,0],[1,1,0],[0,0.25,0],[0,0.5,0],[0,0.75,0],[1,0.25,0],[1,0.5,0],[1,0.75,0]];outlineConnect=0;fontColor=#232F3E;fillColor=#E7157B;strokeColor=#ffffff;dashed=0;verticalLabelPosition=bottom;verticalAlign=top;align=center;html=1;fontSize=12;fontStyle=0;aspect=fixed;shape=mxgraph.aws4.resourceIcon;resIcon=mxgraph.aws4.sns;" parent="1" vertex="1">
          <mxGeometry x="562" y="240" width="78" height="78" as="geometry" />
        </mxCell>
        <mxCell id="h0l9JVYS9Mgj9HRo5y_n-54" style="edgeStyle=orthogonalEdgeStyle;rounded=0;orthogonalLoop=1;jettySize=auto;html=1;exitX=1;exitY=0.75;exitDx=0;exitDy=0;exitPerimeter=0;fillColor=#f8cecc;strokeColor=#FF0000;enumerate=1;enumerateValue=2F;" parent="1" source="h0l9JVYS9Mgj9HRo5y_n-29" target="h0l9JVYS9Mgj9HRo5y_n-50" edge="1">
          <mxGeometry relative="1" as="geometry" />
        </mxCell>
        <mxCell id="h0l9JVYS9Mgj9HRo5y_n-56" style="edgeStyle=orthogonalEdgeStyle;rounded=0;orthogonalLoop=1;jettySize=auto;html=1;exitX=1;exitY=0.75;exitDx=0;exitDy=0;exitPerimeter=0;entryX=0;entryY=0.5;entryDx=0;entryDy=0;entryPerimeter=0;strokeColor=#ff0000;enumerate=1;enumerateValue=3F;" parent="1" source="h0l9JVYS9Mgj9HRo5y_n-32" target="h0l9JVYS9Mgj9HRo5y_n-11" edge="1">
          <mxGeometry relative="1" as="geometry" />
        </mxCell>
        <mxCell id="h0l9JVYS9Mgj9HRo5y_n-59" value="EventBridge&lt;br&gt;Schedule" style="text;html=1;strokeColor=none;fillColor=none;align=center;verticalAlign=middle;whiteSpace=wrap;rounded=0;" parent="1" vertex="1">
          <mxGeometry x="82" y="259" width="78" height="40" as="geometry" />
        </mxCell>
        <mxCell id="h0l9JVYS9Mgj9HRo5y_n-67" value="" style="sketch=0;outlineConnect=0;fontColor=#232F3E;gradientColor=none;fillColor=#232F3D;strokeColor=none;dashed=0;verticalLabelPosition=bottom;verticalAlign=top;align=center;html=1;fontSize=12;fontStyle=0;aspect=fixed;pointerEvents=1;shape=mxgraph.aws4.user;" parent="1" vertex="1">
          <mxGeometry x="760" y="240" width="78" height="78" as="geometry" />
        </mxCell>
        <mxCell id="h0l9JVYS9Mgj9HRo5y_n-68" value="User" style="text;html=1;strokeColor=none;fillColor=none;align=center;verticalAlign=middle;whiteSpace=wrap;rounded=0;" parent="1" vertex="1">
          <mxGeometry x="760" y="320" width="78" height="40" as="geometry" />
        </mxCell>
        <mxCell id="6xOGC-ak0YneYToBrlhZ-2" value="SNS Topic" style="text;html=1;strokeColor=none;fillColor=none;align=center;verticalAlign=middle;whiteSpace=wrap;rounded=0;" vertex="1" parent="1">
          <mxGeometry x="562" y="718" width="78" height="40" as="geometry" />
        </mxCell>
        <mxCell id="6xOGC-ak0YneYToBrlhZ-3" value="" style="sketch=0;outlineConnect=0;fontColor=#232F3E;gradientColor=none;fillColor=#232F3D;strokeColor=none;dashed=0;verticalLabelPosition=bottom;verticalAlign=top;align=center;html=1;fontSize=12;fontStyle=0;aspect=fixed;pointerEvents=1;shape=mxgraph.aws4.user;" vertex="1" parent="1">
          <mxGeometry x="760" y="641" width="78" height="78" as="geometry" />
        </mxCell>
        <mxCell id="6xOGC-ak0YneYToBrlhZ-4" value="User" style="text;html=1;strokeColor=none;fillColor=none;align=center;verticalAlign=middle;whiteSpace=wrap;rounded=0;" vertex="1" parent="1">
          <mxGeometry x="760" y="718" width="78" height="40" as="geometry" />
        </mxCell>
        <mxCell id="6xOGC-ak0YneYToBrlhZ-5" value="" style="sketch=0;points=[[0,0,0],[0.25,0,0],[0.5,0,0],[0.75,0,0],[1,0,0],[0,1,0],[0.25,1,0],[0.5,1,0],[0.75,1,0],[1,1,0],[0,0.25,0],[0,0.5,0],[0,0.75,0],[1,0.25,0],[1,0.5,0],[1,0.75,0]];points=[[0,0,0],[0.25,0,0],[0.5,0,0],[0.75,0,0],[1,0,0],[0,1,0],[0.25,1,0],[0.5,1,0],[0.75,1,0],[1,1,0],[0,0.25,0],[0,0.5,0],[0,0.75,0],[1,0.25,0],[1,0.5,0],[1,0.75,0]];outlineConnect=0;fontColor=#232F3E;fillColor=#E7157B;strokeColor=#ffffff;dashed=0;verticalLabelPosition=bottom;verticalAlign=top;align=center;html=1;fontSize=12;fontStyle=0;aspect=fixed;shape=mxgraph.aws4.resourceIcon;resIcon=mxgraph.aws4.cloudwatch_2;" vertex="1" parent="1">
          <mxGeometry x="82" y="360" width="78" height="78" as="geometry" />
        </mxCell>
        <mxCell id="6xOGC-ak0YneYToBrlhZ-6" value="CloudWatch Logs" style="text;html=1;strokeColor=none;fillColor=none;align=center;verticalAlign=middle;whiteSpace=wrap;rounded=0;" vertex="1" parent="1">
          <mxGeometry x="82" y="440" width="78" height="40" as="geometry" />
        </mxCell>
        <mxCell id="6xOGC-ak0YneYToBrlhZ-8" style="edgeStyle=orthogonalEdgeStyle;rounded=0;orthogonalLoop=1;jettySize=auto;html=1;exitX=1;exitY=0.5;exitDx=0;exitDy=0;exitPerimeter=0;strokeColor=#FF0000;enumerate=1;enumerateValue=F;" edge="1" parent="1" source="6xOGC-ak0YneYToBrlhZ-1" target="6xOGC-ak0YneYToBrlhZ-3">
          <mxGeometry relative="1" as="geometry" />
        </mxCell>
        <mxCell id="6xOGC-ak0YneYToBrlhZ-9" style="edgeStyle=orthogonalEdgeStyle;rounded=0;orthogonalLoop=1;jettySize=auto;html=1;exitX=0;exitY=0.75;exitDx=0;exitDy=0;exitPerimeter=0;entryX=1;entryY=0.5;entryDx=0;entryDy=0;entryPerimeter=0;enumerate=1;enumerateValue=%E2%88%9E;" edge="1" parent="1" source="h0l9JVYS9Mgj9HRo5y_n-28" target="6xOGC-ak0YneYToBrlhZ-5">
          <mxGeometry relative="1" as="geometry">
            <Array as="points">
              <mxPoint x="180" y="241" />
              <mxPoint x="180" y="399" />
            </Array>
          </mxGeometry>
        </mxCell>
      </root>
    </mxGraphModel>
  </diagram>
</mxfile>
